<svg xmlns="http://www.w3.org/2000/svg">
	<symbol id="icon" viewBox="0 0 240 240">
		<path d="M140,227.5h-40c-29.4,0-45.5,0-56.5-11c-11-11-11-27.2-11-56.5V80c0-29.4,0-45.5,11-56.5c11-11,27.2-11,56.5-11
			h40c29.4,0,45.5,0,56.5,11c11,11,11,27.2,11,56.5v80c0,29.4,0,45.5-11,56.5C185.5,227.5,169.4,227.5,140,227.5z M100,27.5
			c-26.2,0-39.3,0-45.9,6.6c-6.6,6.6-6.6,19.7-6.6,45.9v80c0,26.2,0,39.3,6.6,45.9c6.6,6.6,19.7,6.6,45.9,6.6h40
			c26.2,0,39.3,0,45.9-6.6c6.6-6.6,6.6-19.7,6.6-45.9V80c0-26.2,0-39.3-6.6-45.9c-6.6-6.6-19.7-6.6-45.9-6.6H100z"/>
		<path d="M47.2,184.2l-14.5-3.9c3.5-12.9,13.6-23.1,26.5-26.5c4.8-1.3,9.8-1.3,19.7-1.3h120v15H79c-8.4,0-13,0-15.8,0.8
			C55.4,170.3,49.3,176.4,47.2,184.2z"/>
		<path d="M160,77.5H80c-4.1,0-7.5-3.4-7.5-7.5s3.4-7.5,7.5-7.5h80c4.1,0,7.5,3.4,7.5,7.5S164.1,77.5,160,77.5z"/>
		<path d="M130,112.5H80c-4.1,0-7.5-3.4-7.5-7.5s3.4-7.5,7.5-7.5h50c4.1,0,7.5,3.4,7.5,7.5S134.1,112.5,130,112.5z"/>
		<path d="M195,197.5H80c-4.1,0-7.5-3.4-7.5-7.5s3.4-7.5,7.5-7.5h115c4.1,0,7.5,3.4,7.5,7.5S199.1,197.5,195,197.5z"/>
	</symbol>
</svg>
