<svg xmlns="http://www.w3.org/2000/svg">
	<symbol id="icon" viewBox="0 0 240 240">
		<path d="M120,167.5c-20.7,0-37.5-16.8-37.5-37.5S99.3,92.5,120,92.5s37.5,16.8,37.5,37.5S140.7,167.5,120,167.5z
			M120,107.5c-12.4,0-22.5,10.1-22.5,22.5c0,12.4,10.1,22.5,22.5,22.5c12.4,0,22.5-10.1,22.5-22.5C142.5,117.6,132.4,107.5,120,107.5
			z"/>
		<path d="M142.2,217.5H97.8c-32.7,0-49.1,0-62.1-8.6c-5.7-3.7-10.5-8.5-14.3-14.1c-8.8-12.9-8.8-29.1-8.8-61.2
			c0-32.1,0-48.3,8.8-61.2c3.8-5.6,8.6-10.3,14.3-14.1c9.2-6,20.1-7.6,33.8-8.2l0.3,0c2.9,0,5.6-2.3,6.2-5.2
			c2.6-13,14.3-22.4,27.7-22.4h32.7c13.4,0,25,9.4,27.7,22.4c0.6,3,3.3,5.2,6.2,5.2l0.3,0c13.7,0.6,24.6,2.2,33.8,8.2
			c5.7,3.7,10.5,8.5,14.3,14.1c8.8,12.9,8.8,29,8.8,61.2c0,32.1,0,48.3-8.8,61.2c-3.8,5.6-8.6,10.3-14.3,14.1
			C191.3,217.5,174.9,217.5,142.2,217.5z M70,65.1c-13.3,0.6-20.7,2.2-26.1,5.8c-4.1,2.7-7.5,6-10.2,10c-6.2,9.1-6.2,23.7-6.2,52.8
			c0,29.1,0,43.7,6.2,52.8c2.7,4,6.1,7.3,10.2,10c9.3,6.1,24.2,6.1,53.9,6.1h44.4c29.7,0,44.6,0,53.9-6.1c4-2.7,7.5-6,10.2-10
			c6.2-9.1,6.2-23.7,6.2-52.8c0-29.1,0-43.7-6.2-52.8c-2.7-4-6.1-7.3-10.2-10c-5.4-3.6-12.8-5.2-26.1-5.8c-10-0.1-18.7-7.3-20.7-17.2
			c-1.2-6-6.7-10.4-13-10.4h-32.7c-6.3,0-11.8,4.4-13,10.4C88.7,57.8,80,65,70,65.1z"/>
		<path d="M190,107.5h-10c-4.1,0-7.5-3.4-7.5-7.5s3.4-7.5,7.5-7.5h10c4.1,0,7.5,3.4,7.5,7.5S194.1,107.5,190,107.5z"/>
	</symbol>
</svg>
