<svg xmlns="http://www.w3.org/2000/svg">
	<symbol id="icon" viewBox="0 0 240 240">
		<path d="M120,227.5c-59.3,0-107.5-48.2-107.5-107.5C12.5,60.7,60.7,12.5,120,12.5c59.3,0,107.5,48.2,107.5,107.5
			C227.5,179.3,179.3,227.5,120,227.5z M120,27.5C69,27.5,27.5,69,27.5,120S69,212.5,120,212.5s92.5-41.5,92.5-92.5S171,27.5,120,27.5
			z"/>
		<path d="M120,177.5c-4.1,0-7.5-3.4-7.5-7.5v-60c0-4.1,3.4-7.5,7.5-7.5c4.1,0,7.5,3.4,7.5,7.5v60
			C127.5,174.1,124.1,177.5,120,177.5z"/>
		<circle cx="120" cy="80" r="10"/>
	</symbol>
</svg>
