<svg xmlns="http://www.w3.org/2000/svg">
	<symbol id="icon" viewBox="0 0 240 240">
		<path d="M120,157.5c-20.7,0-37.5-16.8-37.5-37.5S99.3,82.5,120,82.5s37.5,16.8,37.5,37.5S140.7,157.5,120,157.5z
			M120,97.5c-12.4,0-22.5,10.1-22.5,22.5c0,12.4,10.1,22.5,22.5,22.5c12.4,0,22.5-10.1,22.5-22.5C142.5,107.6,132.4,97.5,120,97.5z"
			/>
		<path d="M120,227.3c-10.3,0-15.5,0-20.5-2c-6.7-2.8-12.2-8.2-14.9-14.9c-1.2-3-1.8-6.4-2-11.2c-0.1-3-1.7-5.8-4.2-7.2
			c-2.5-1.4-5.7-1.4-8.4,0c-3.8,2-7.1,3.5-10.8,3.9c-7.2,1-14.4-1-20.3-5.5c-4.3-3.3-6.8-7.7-11.9-16.4l-0.2-0.3
			c-5.1-8.6-7.8-13.4-8.5-18.8c-1-7.2,1-14.4,5.5-20.3c2.2-3,5.1-5.1,8.8-7.4c2.7-1.7,4.3-4.3,4.3-7.2c0-2.8-1.6-5.5-4.3-7.3
			c-4.1-2.6-6.7-4.7-8.7-7.3c-4.6-5.8-6.5-13-5.5-20.4c0.7-5.4,3.4-10.2,8.4-18.8l0.4-0.7c4.7-8.2,7.3-12.7,11.6-16
			c5.8-4.5,13-6.5,20.4-5.5c3.6,0.5,6.9,1.9,10.7,3.9c2.8,1.5,6,1.5,8.4,0.1c2.5-1.5,4.1-4.2,4.2-7.3c0.1-4.8,0.7-8.1,2-11.2
			c2.7-6.7,8.2-12.2,14.9-14.9c5.1-2.1,10.6-2.1,20.5-2.1c10,0,15.5,0,20.5,2l0.1,0.1c6.7,2.9,11.9,8.1,14.7,14.7l0,0.1
			c1.2,3,1.8,6.4,2,11.2c0.1,3,1.7,5.8,4.2,7.2c2.5,1.4,5.7,1.4,8.4,0c3.8-2,7.1-3.5,10.8-3.9c7.2-0.9,14.4,1,20.3,5.5
			c4.3,3.3,6.8,7.7,11.9,16.4l0.2,0.3c5.1,8.6,7.8,13.4,8.5,18.8c1,7.2-1,14.4-5.5,20.3c-2.2,3-5.1,5.1-8.8,7.4
			c-2.7,1.7-4.3,4.3-4.3,7.2c0,2.8,1.6,5.5,4.3,7.3c4.1,2.6,6.7,4.7,8.7,7.3c4.6,5.8,6.5,13.1,5.5,20.4c-0.7,5.4-3.4,10.2-8.4,18.8
			l-0.4,0.7c-4.7,8.2-7.3,12.8-11.6,16c-5.8,4.5-13,6.5-20.3,5.5c-3.6-0.5-6.9-1.9-10.7-3.9c-2.8-1.5-6-1.5-8.4-0.1
			c-2.5,1.5-4.1,4.2-4.2,7.3c-0.1,4.8-0.7,8.1-2,11.2c-2.7,6.7-8.2,12.2-14.9,14.9C135.5,227.3,130.3,227.3,120,227.3z M74.3,175.8
			c4,0,8,1,11.6,3.1c6.9,4,11.4,11.6,11.7,19.7c0.1,3,0.3,4.8,0.8,6c1.2,3,3.7,5.5,6.7,6.7c2.3,0.9,6.8,0.9,14.9,0.9
			c8.1,0,12.5,0,14.9-1c3-1.2,5.4-3.7,6.7-6.7c0.5-1.2,0.8-3.1,0.8-6c0.3-8.3,4.6-15.7,11.6-19.8c6.9-4,15.5-4.1,22.9-0.3
			c2.8,1.5,4.5,2.2,5.7,2.3c3.4,0.4,6.7-0.4,9.2-2.5l0.1-0.1c1.9-1.4,4.1-5.2,7.7-11.5l0.4-0.7c3.9-6.7,6.2-10.8,6.6-13.2
			c0.4-3.4-0.4-6.6-2.5-9.2c-0.9-1.1-2.3-2.2-4.9-3.9c-7.1-4.5-11.3-12-11.3-19.9c0-8.1,4.2-15.5,11.3-20c2.6-1.6,4-2.7,4.8-3.7
			c2.1-2.8,3-6,2.6-9.3c-0.3-2.5-2.7-6.6-6.5-13.2l-0.2-0.3c-4-6.8-6.1-10.6-8-12.1c-2.7-2-6-2.9-9.2-2.5c-1.3,0.2-2.9,0.8-5.7,2.3
			c-7.3,3.9-15.9,3.8-22.9-0.2c-6.9-4-11.4-11.6-11.7-19.7c-0.1-2.9-0.3-4.7-0.8-6c-1.3-3.1-3.7-5.4-6.8-6.8
			c-2.4-0.9-6.8-0.9-14.8-0.9c-8.1,0-12.5,0-14.9,1c-3,1.2-5.4,3.7-6.7,6.7c-0.5,1.2-0.8,3.1-0.8,6C97.3,49.4,93,56.8,86,60.9
			c-6.9,4-15.5,4.1-22.9,0.3c-2.8-1.5-4.5-2.2-5.7-2.3c-3.4-0.4-6.7,0.4-9.2,2.5L48,61.4c-1.9,1.4-4.1,5.2-7.7,11.5l-0.4,0.7
			c-3.9,6.7-6.2,10.8-6.6,13.2c-0.4,3.4,0.4,6.6,2.5,9.2c0.9,1.1,2.3,2.2,4.9,3.9c7.1,4.5,11.3,12,11.3,19.9c0,8.1-4.2,15.5-11.3,20
			c-2.6,1.6-4,2.7-4.8,3.7c-2.1,2.8-3,6-2.6,9.3c0.3,2.5,2.7,6.6,6.5,13.2l0.2,0.3c4,6.8,6.1,10.6,8,12c2.7,2,6,2.9,9.2,2.5
			c1.3-0.2,2.9-0.8,5.7-2.3C66.6,176.8,70.5,175.8,74.3,175.8z"/>
	</symbol>
</svg>
