<svg xmlns="http://www.w3.org/2000/svg">
	<symbol id="icon" viewBox="0 0 240 240">
		<path d="M130,117.5c-1.9,0-3.8-0.7-5.3-2.2c-2.9-2.9-2.9-7.7,0-10.6l77.2-77.2h-35.3c-4.1,0-7.5-3.4-7.5-7.5
			s3.4-7.5,7.5-7.5H220c0,0,0,0,0.1,0c0,0,0,0,0,0c0,0,0,0,0,0c1,0,1.9,0.2,2.8,0.6c0.9,0.4,1.7,0.9,2.4,1.6c0.7,0.7,1.3,1.6,1.6,2.4
			c0.4,0.9,0.6,1.8,0.6,2.8c0,0,0,0,0,0c0,0,0,0,0,0c0,0,0,0,0,0.1v53.4c0,4.1-3.4,7.5-7.5,7.5s-7.5-3.4-7.5-7.5V38.1l-77.2,77.2
			C133.8,116.8,131.9,117.5,130,117.5z"/>
		<path d="M120,227.5c-49.1,0-73.8,0-90.7-16.8c-16.8-16.8-16.8-41.5-16.8-90.7c0-49.1,0-73.8,16.8-90.7
			S70.9,12.5,120,12.5c4.1,0,7.5,3.4,7.5,7.5s-3.4,7.5-7.5,7.5c-45,0-67.6,0-80.1,12.4S27.5,75,27.5,120c0,45,0,67.6,12.4,80.1
			c12.4,12.4,35,12.4,80.1,12.4c45,0,67.6,0,80.1-12.4c12.4-12.4,12.4-35,12.4-80.1c0-4.1,3.4-7.5,7.5-7.5s7.5,3.4,7.5,7.5
			c0,49.1,0,73.8-16.8,90.7C193.8,227.5,169.1,227.5,120,227.5z"/>
	</symbol>
</svg>
